<svg xmlns="http://www.w3.org/2000/svg" version="1.1" width="64px" height="64px" style="shape-rendering:geometricPrecision; text-rendering:geometricPrecision; image-rendering:optimizeQuality; fill-rule:evenodd; clip-rule:evenodd" xmlns:xlink="http://www.w3.org/1999/xlink">
<g><path style="opacity:1" fill="#1a1919" d="M -0.5,-0.5 C 20.8333,-0.5 42.1667,-0.5 63.5,-0.5C 63.5,20.8333 63.5,42.1667 63.5,63.5C 42.1667,63.5 20.8333,63.5 -0.5,63.5C -0.5,42.1667 -0.5,20.8333 -0.5,-0.5 Z"/></g>
<g><path style="opacity:1" fill="#ededed" d="M 17.5,17.5 C 18.0967,17.7352 18.4301,18.2352 18.5,19C 17.0171,23.4 16.0171,27.9 15.5,32.5C 18.5719,32.8174 21.5719,32.4841 24.5,31.5C 25.7137,27.5489 26.7137,23.5489 27.5,19.5C 28.8333,18.1667 30.1667,18.1667 31.5,19.5C 29.3346,27.4944 27.168,35.4944 25,43.5C 23.8173,44.731 22.6507,44.731 21.5,43.5C 22.1667,40.8333 22.8333,38.1667 23.5,35.5C 20.5541,34.3452 17.5541,34.1786 14.5,35C 13.4396,37.7367 12.6063,40.57 12,43.5C 10.9887,44.3366 9.82207,44.67 8.5,44.5C 8.69173,41.3992 9.3584,38.3992 10.5,35.5C 9.97473,34.8076 9.30806,34.3076 8.5,34C 11.6275,29.6846 13.6275,24.8513 14.5,19.5C 15.6016,18.8243 16.6016,18.1577 17.5,17.5 Z"/></g>
<g><path style="opacity:1" fill="#e2e2e2" d="M 43.5,18.5 C 57.5425,19.1256 59.2092,24.2923 48.5,34C 45.7829,36.0762 42.7829,36.7429 39.5,36C 45.6826,34.5964 49.6826,30.9298 51.5,25C 51.2622,21.9295 49.5956,20.4295 46.5,20.5C 43.0368,21.2745 39.7035,22.1079 36.5,23C 38.8981,21.4758 41.2314,19.9758 43.5,18.5 Z"/></g>
<g><path style="opacity:1" fill="#e8e8e8" d="M 39.5,23.5 C 40.0967,23.7352 40.4301,24.2352 40.5,25C 39.3234,30.3731 37.9901,35.7065 36.5,41C 36.2906,42.8715 35.2906,44.0381 33.5,44.5C 32.4409,41.1551 32.6076,37.8217 34,34.5C 35.0438,32.2852 35.7105,29.9519 36,27.5C 36.6897,25.6498 37.8564,24.3164 39.5,23.5 Z"/></g>
</svg>