<svg width="45" height="29" viewBox="0 0 45 29" xmlns="http://www.w3.org/2000/svg"><g id="svgGroup" stroke-linecap="round" fill-rule="evenodd" font-size="9pt" stroke="#ffffff" stroke-width="0.25mm" fill="#ffffff" style="stroke:#ffffff;stroke-width:0.25mm;fill:#ffffff"><path d="M 19.23 0 L 19.23 25.172 L 15.592 26.473 L 15.592 16.488 L 6.451 16.488 L 6.451 25.172 L 2.813 26.473 L 2.813 16.488 L 0 16.488 L 1.301 13.939 L 2.813 13.939 L 2.813 1.301 L 6.451 0 L 6.451 13.939 L 15.592 13.939 L 15.592 1.301 L 19.23 0 Z M 30.199 18.51 L 30.393 17.543 A 14.929 14.929 0 0 0 32.522 17.015 A 16.496 16.496 0 0 0 32.704 16.954 Q 33.873 16.559 34.945 15.97 A 12.364 12.364 0 0 0 36.949 14.599 A 9.445 9.445 0 0 0 38.566 12.858 A 8.235 8.235 0 0 0 39.647 10.767 A 7.195 7.195 0 0 0 40.033 8.734 A 8.31 8.31 0 0 0 40.043 8.332 A 6.743 6.743 0 0 0 39.873 6.795 A 5.856 5.856 0 0 0 39.639 6.029 A 5.574 5.574 0 0 0 38.725 4.45 A 5.251 5.251 0 0 0 38.505 4.201 A 5.101 5.101 0 0 0 36.756 2.997 Q 35.736 2.566 34.488 2.566 A 12.243 12.243 0 0 0 32.165 2.795 A 13.731 13.731 0 0 0 31.825 2.865 A 16.492 16.492 0 0 0 29.127 3.709 Q 27.791 4.254 26.552 5.036 A 16.05 16.05 0 0 0 24.275 6.768 L 23.73 6.17 A 18.131 18.131 0 0 1 25.716 4.461 A 21.024 21.024 0 0 1 26.464 3.929 Q 28.002 2.883 29.689 2.101 Q 31.377 1.318 33.108 0.861 A 13.917 13.917 0 0 1 35.221 0.469 A 11.78 11.78 0 0 1 36.439 0.404 Q 37.969 0.404 39.296 0.94 A 6.908 6.908 0 0 1 41.599 2.443 A 7.046 7.046 0 0 1 43.119 4.704 A 7.98 7.98 0 0 1 43.137 4.746 A 7.238 7.238 0 0 1 43.672 6.994 A 8.637 8.637 0 0 1 43.699 7.682 A 7.551 7.551 0 0 1 43.128 10.582 A 10.527 10.527 0 0 1 41.581 13.184 A 13.171 13.171 0 0 1 39.322 15.381 A 15.969 15.969 0 0 1 36.598 17.068 Q 35.156 17.771 33.662 18.158 A 12.117 12.117 0 0 1 31.702 18.503 A 10.387 10.387 0 0 1 30.779 18.545 L 30.489 18.545 A 1.191 1.191 0 0 1 30.199 18.51 Z M 29.408 5.484 L 29.408 25.137 L 25.787 26.473 L 25.787 6.768 L 29.408 5.484 Z" vectorEffect="non-scaling-stroke"/></g></svg>
